<svg width="180" height="31" viewBox="0 0 180 31" fill="none" xmlns="http://www.w3.org/2000/svg">
<path d="M50.4982 12.3267C50.5033 12.0466 50.6169 11.7795 50.8149 11.5814C51.013 11.3834 51.2801 11.2698 51.5602 11.2647H51.8052C52.0082 11.2653 52.2077 11.3182 52.3843 11.4184C52.5608 11.5186 52.7086 11.6627 52.8132 11.8367L59.6202 22.0747L66.4272 11.8367C66.5298 11.6611 66.677 11.5158 66.8538 11.4154C67.0306 11.3149 67.2308 11.2629 67.4342 11.2647H67.6792C67.9593 11.2696 68.2266 11.383 68.4247 11.5811C68.6229 11.7793 68.7363 12.0466 68.7412 12.3267V29.4547C68.7418 29.739 68.6309 30.0123 68.4324 30.2159C68.2339 30.4195 67.9635 30.5372 67.6792 30.5437C67.3921 30.5383 67.1182 30.4218 66.9151 30.2188C66.712 30.0157 66.5956 29.7418 66.5902 29.4547V15.2407L60.4902 24.1997C60.401 24.3613 60.2709 24.4966 60.113 24.5921C59.955 24.6876 59.7747 24.7398 59.5902 24.7437C59.4022 24.7397 59.2184 24.6876 59.0563 24.5924C58.8942 24.4971 58.7592 24.3619 58.6642 24.1997L52.5922 15.2687V29.4817C52.5922 29.7602 52.4816 30.0272 52.2847 30.2242C52.0877 30.4211 51.8207 30.5317 51.5422 30.5317C51.2637 30.5317 50.9966 30.4211 50.7997 30.2242C50.6028 30.0272 50.4922 29.7602 50.4922 29.4817L50.4982 12.3267Z" fill="#FFFFFF"/>
<path d="M79.77 12.3002C79.7656 12.1562 79.7902 12.0128 79.8423 11.8785C79.8944 11.7442 79.9729 11.6217 80.0732 11.5182C80.1735 11.4148 80.2935 11.3326 80.4262 11.2765C80.5589 11.2203 80.7015 11.1914 80.8455 11.1914C80.9896 11.1914 81.1322 11.2203 81.2649 11.2765C81.3975 11.3326 81.5176 11.4148 81.6179 11.5182C81.7182 11.6217 81.7967 11.7442 81.8488 11.8785C81.9009 12.0128 81.9254 12.1562 81.921 12.3002V29.4552C81.9254 29.5992 81.9009 29.7426 81.8488 29.8769C81.7967 30.0113 81.7182 30.1338 81.6179 30.2372C81.5176 30.3406 81.3975 30.4228 81.2649 30.4789C81.1322 30.5351 80.9896 30.564 80.8455 30.564C80.7015 30.564 80.5589 30.5351 80.4262 30.4789C80.2935 30.4228 80.1735 30.3406 80.0732 30.2372C79.9729 30.1338 79.8944 30.0113 79.8423 29.8769C79.7902 29.7426 79.7656 29.5992 79.77 29.4552V12.3002Z" fill="#FFFFFF"/>
<path d="M92.9483 12.3276C92.9534 12.0476 93.067 11.7804 93.265 11.5824C93.4631 11.3843 93.7303 11.2708 94.0103 11.2656H94.3103C94.5297 11.271 94.7443 11.3312 94.9345 11.4408C95.1247 11.5503 95.2845 11.7056 95.3993 11.8926L106.973 26.6506V12.2736C106.973 11.9952 107.084 11.7281 107.281 11.5312C107.478 11.3343 107.745 11.2236 108.023 11.2236C108.302 11.2236 108.569 11.3343 108.766 11.5312C108.963 11.7281 109.073 11.9952 109.073 12.2736V29.4826C109.079 29.6141 109.058 29.7453 109.011 29.8682C108.964 29.9911 108.892 30.1032 108.8 30.1975C108.709 30.2918 108.599 30.3663 108.477 30.4165C108.355 30.4668 108.225 30.4917 108.093 30.4896H107.984C107.761 30.4728 107.544 30.4052 107.351 30.292C107.158 30.1789 106.992 30.0231 106.868 29.8366L95.0453 14.7236V29.4826C95.0453 29.7611 94.9347 30.0282 94.7378 30.2251C94.5408 30.422 94.2738 30.5326 93.9953 30.5326C93.7168 30.5326 93.4498 30.422 93.2528 30.2251C93.0559 30.0282 92.9453 29.7611 92.9453 29.4826L92.9483 12.3276Z" fill="#FFFFFF"/>
<path d="M120.098 12.3002C120.094 12.1562 120.118 12.0128 120.17 11.8785C120.222 11.7442 120.301 11.6217 120.401 11.5182C120.502 11.4148 120.622 11.3326 120.754 11.2765C120.887 11.2203 121.03 11.1914 121.174 11.1914C121.318 11.1914 121.46 11.2203 121.593 11.2765C121.726 11.3326 121.846 11.4148 121.946 11.5182C122.046 11.6217 122.125 11.7442 122.177 11.8785C122.229 12.0128 122.254 12.1562 122.249 12.3002V29.4552C122.254 29.5992 122.229 29.7426 122.177 29.8769C122.125 30.0113 122.046 30.1338 121.946 30.2372C121.846 30.3406 121.726 30.4228 121.593 30.4789C121.46 30.5351 121.318 30.564 121.174 30.564C121.03 30.564 120.887 30.5351 120.754 30.4789C120.622 30.4228 120.502 30.3406 120.401 30.2372C120.301 30.1338 120.222 30.0113 120.17 29.8769C120.118 29.7426 120.094 29.5992 120.098 29.4552V12.3002Z" fill="#FFFFFF"/>
<path d="M133.279 12.3267C133.285 12.0466 133.398 11.7795 133.596 11.5814C133.794 11.3834 134.061 11.2698 134.341 11.2647H134.586C134.789 11.2653 134.989 11.3182 135.165 11.4184C135.342 11.5186 135.49 11.6627 135.594 11.8367L142.401 22.0747L149.208 11.8367C149.311 11.6611 149.458 11.5158 149.635 11.4154C149.812 11.3149 150.012 11.2629 150.215 11.2647H150.46C150.741 11.2696 151.008 11.383 151.206 11.5811C151.404 11.7793 151.518 12.0466 151.522 12.3267V29.4547C151.523 29.739 151.412 30.0123 151.214 30.2159C151.015 30.4195 150.745 30.5372 150.46 30.5437C150.173 30.5383 149.899 30.4218 149.696 30.2188C149.493 30.0157 149.377 29.7418 149.371 29.4547V15.2407L143.271 24.1997C143.182 24.3613 143.052 24.4966 142.894 24.5921C142.736 24.6876 142.556 24.7398 142.371 24.7437C142.183 24.7397 142 24.6876 141.838 24.5924C141.675 24.4971 141.54 24.3619 141.445 24.1997L135.373 15.2687V29.4817C135.373 29.7602 135.263 30.0272 135.066 30.2242C134.869 30.4211 134.602 30.5317 134.323 30.5317C134.045 30.5317 133.778 30.4211 133.581 30.2242C133.384 30.0272 133.273 29.7602 133.273 29.4817L133.279 12.3267Z" fill="#FFFFFF"/>
<path d="M161.191 28.9922L168.924 12.0822C169.02 11.7997 169.204 11.5552 169.448 11.384C169.693 11.2129 169.985 11.124 170.284 11.1302H170.393C170.688 11.1243 170.977 11.2138 171.218 11.3855C171.458 11.5572 171.637 11.8019 171.727 12.0832L179.46 28.9662C179.54 29.1373 179.586 29.3224 179.596 29.5112C179.596 29.6471 179.569 29.7818 179.517 29.9074C179.465 30.0331 179.389 30.1472 179.293 30.2433C179.197 30.3395 179.083 30.4157 178.957 30.4677C178.831 30.5196 178.697 30.5463 178.561 30.5462C178.325 30.5366 178.097 30.4561 177.908 30.3151C177.718 30.1742 177.576 29.9794 177.499 29.7562L175.514 25.3702H165.058L163.07 29.8092C162.997 30.0254 162.858 30.2129 162.672 30.345C162.486 30.4771 162.263 30.5468 162.035 30.5442C161.906 30.5447 161.778 30.5197 161.659 30.4706C161.54 30.4214 161.431 30.3492 161.34 30.258C161.249 30.1668 161.177 30.0584 161.128 29.9392C161.079 29.8199 161.054 29.6921 161.055 29.5632C161.054 29.3647 161.1 29.1689 161.191 28.9922ZM174.67 23.4102L170.284 13.6612L165.9 23.4092L174.67 23.4102Z" fill="#FFFFFF"/>
<path d="M23.832 7.18945L20.332 22.6805L22.212 30.5445L25.712 15.0535L23.832 7.18945Z" fill="#FFFFFF"/>
<path d="M13.8765 3.16699L9.76953 21.326L11.3435 30.544L15.4505 12.386L13.8765 3.16699Z" fill="#FFFFFF"/>
<path d="M7.27656 0.5L6.67656 3.167L0.476562 30.544H7.68356L9.76856 21.326L13.8766 3.167L7.27656 0.5Z" fill="#FF512F"/>
<path d="M17.2298 4.52051L16.6297 7.18751L15.4548 12.3875L11.3438 30.5405H18.5508L20.3298 22.6765L23.8298 7.18551L17.2298 4.52051Z" fill="#317AFF"/>
<path d="M27.1839 8.54297L25.7109 15.053L22.2109 30.544H29.4179L33.7909 11.211L27.1839 8.54297Z" fill="#91919D"/>
</svg>
